<svg xmlns="http://www.w3.org/2000/svg" xmlns:xlink="http://www.w3.org/1999/xlink" width="2060" height="667.88"><rect width="2060" height="667.88" rx="5" ry="5" class="a"/><svg y="0%" x="0%"><circle cx="20" cy="20" r="6" fill="#ff5f58"/><circle cx="40" cy="20" r="6" fill="#ffbd2e"/><circle cx="60" cy="20" r="6" fill="#18c132"/></svg><svg height="607.88" viewBox="0 0 202 60.788" width="2020" x="15" xmlns="http://www.w3.org/2000/svg" xmlns:xlink="http://www.w3.org/1999/xlink" y="50"><style>@keyframes l{0%{transform:translateX(0)}1.29%{transform:translateX(-202px)}1.3%{transform:translateX(-404px)}6.5%{transform:translateX(-606px)}6.68%{transform:translateX(-808px)}7.25%{transform:translateX(-1010px)}7.82%{transform:translateX(-1212px)}8.44%{transform:translateX(-1414px)}8.8%{transform:translateX(-1616px)}9.17%{transform:translateX(-1818px)}11.09%{transform:translateX(-2020px)}11.53%{transform:translateX(-2222px)}12.73%{transform:translateX(-2424px)}13.39%{transform:translateX(-2626px)}13.84%{transform:translateX(-2828px)}14.43%{transform:translateX(-3030px)}16.38%{transform:translateX(-3232px)}17.16%{transform:translateX(-3434px)}17.73%{transform:translateX(-3636px)}18.19%{transform:translateX(-3838px)}18.45%{transform:translateX(-4040px)}18.8%{transform:translateX(-4242px)}19.46%{transform:translateX(-4444px)}19.64%{transform:translateX(-4646px)}19.96%{transform:translateX(-4848px)}20.15%{transform:translateX(-5050px)}22.07%{transform:translateX(-5252px)}28.23%{transform:translateX(-5454px)}28.5%{transform:translateX(-5656px)}28.9%{transform:translateX(-5858px)}29.34%{transform:translateX(-6060px)}30.62%{transform:translateX(-6262px)}32.28%{transform:translateX(-6464px)}32.7%{transform:translateX(-6666px)}33.42%{transform:translateX(-6868px)}33.72%{transform:translateX(-7070px)}34.24%{transform:translateX(-7272px)}34.54%{transform:translateX(-7474px)}34.67%{transform:translateX(-7676px)}36.07%{transform:translateX(-7878px)}37.03%{transform:translateX(-8080px)}37.76%{transform:translateX(-8282px)}38.17%{transform:translateX(-8484px)}41.83%{transform:translateX(-8686px)}43.79%{transform:translateX(-8888px)}43.98%{transform:translateX(-9090px)}44.37%{transform:translateX(-9292px)}44.72%{transform:translateX(-9494px)}45.1%{transform:translateX(-9696px)}46.53%{transform:translateX(-10100px)}48.82%{transform:translateX(-10504px)}53.23%{transform:translateX(-11312px)}54.93%{transform:translateX(-11514px)}58.7%{transform:translateX(-11716px)}59.08%{transform:translateX(-11918px)}59.72%{transform:translateX(-12524px)}62.98%{transform:translateX(-12928px)}63.71%{transform:translateX(-13736px)}64.25%{transform:translateX(-14342px)}64.84%{transform:translateX(-14746px)}64.85%{transform:translateX(-14948px)}70.26%{transform:translateX(-15352px)}72.42%{transform:translateX(-15554px)}73.01%{transform:translateX(-15756px)}74.01%{transform:translateX(-15958px)}75.76%{transform:translateX(-16160px)}78.61%{transform:translateX(-16362px)}79.58%{transform:translateX(-16564px)}81.57%{transform:translateX(-16766px)}81.99%{transform:translateX(-16968px)}82.87%{transform:translateX(-17170px)}84.41%{transform:translateX(-17372px)}84.74%{transform:translateX(-17574px)}85.07%{transform:translateX(-17776px)}85.61%{transform:translateX(-17978px)}85.97%{transform:translateX(-18180px)}86.15%{transform:translateX(-18382px)}86.45%{transform:translateX(-18584px)}86.95%{transform:translateX(-18786px)}87.65%{transform:translateX(-19190px)}87.66%{transform:translateX(-19392px)}87.79%{transform:translateX(-19594px)}87.8%{transform:translateX(-20806px)}97.01%{transform:translateX(-21008px)}97.33%{transform:translateX(-21210px)}98.93%{transform:translateX(-21412px)}99.45%{transform:translateX(-21614px)}99.99%{transform:translateX(-22018px)}to{transform:translateX(-22220px)}}.a{fill:#282d35}.f{white-space:pre}.f,.g{fill:#b9c0cb}.h{fill:#282d35;white-space:pre}</style><g font-family="Monaco,Consolas,Menlo,'Bitstream Vera Sans Mono','Powerline Symbols',monospace" font-size="1.67"><defs><symbol id="1"><text y="1.67" class="f">joshcarp</text><text x="9.018" y="1.67" class="f">grpctl</text><text x="16.032" y="1.67" class="f">%</text></symbol><symbol id="2"><text y="1.67" class="f">joshcarp</text><text x="9.018" y="1.67" class="f">grpctl</text><text x="16.032" y="1.67" class="f">%</text><text x="18.036" y="1.67" class="f">grpctl</text></symbol><symbol id="3"><text y="1.67" class="f">joshcarp</text><text x="9.018" y="1.67" class="f">grpctl</text><text x="16.032" y="1.67" class="f">%</text><text x="18.036" y="1.67" class="f">grpctl</text><text x="25.05" y="1.67" class="f">--addr=localhost:8081</text></symbol><symbol id="4"><text y="1.67" class="f">joshcarp</text><text x="9.018" y="1.67" class="f">grpctl</text><text x="16.032" y="1.67" class="f">%</text><text x="18.036" y="1.67" class="f">grpctl</text><text x="25.05" y="1.67" class="f">--addr=localhost:8081</text><text x="47.094" y="1.67" class="f">--plaintext=true</text></symbol><symbol id="5"><text y="1.67" class="f">BarAPI</text><text x="12.024" y="1.67" class="f">--</text><text x="15.03" y="1.67" class="f">BarAPI</text><text x="22.044" y="1.67" class="f">as</text><text x="25.05" y="1.67" class="f">defined</text><text x="33.066" y="1.67" class="f">in</text><text x="36.072" y="1.67" class="f">api.proto</text></symbol><symbol id="6"><text y="1.67" class="f">FooAPI</text><text x="12.024" y="1.67" class="f">--</text><text x="15.03" y="1.67" class="f">FooAPI</text><text x="22.044" y="1.67" class="f">as</text><text x="25.05" y="1.67" class="f">defined</text><text x="33.066" y="1.67" class="f">in</text><text x="36.072" y="1.67" class="f">api.proto</text></symbol><symbol id="7"><text y="1.67" class="f">completion</text><text x="12.024" y="1.67" class="f">--</text><text x="15.03" y="1.67" class="f">generate</text><text x="24.048" y="1.67" class="f">the</text><text x="28.056" y="1.67" class="f">autocompletion</text><text x="43.086" y="1.67" class="f">script</text><text x="50.1" y="1.67" class="f">for</text><text x="54.108" y="1.67" class="f">the</text><text x="58.116" y="1.67" class="f">specified</text><text x="68.136" y="1.67" class="f">shell</text></symbol><symbol id="8"><text y="1.67" class="f">help</text><text x="12.024" y="1.67" class="f">--</text><text x="15.03" y="1.67" class="f">Help</text><text x="20.04" y="1.67" class="f">about</text><text x="26.052" y="1.67" class="f">any</text><text x="30.06" y="1.67" class="f">command</text></symbol><symbol id="9"><text y="1.67" class="f">joshcarp</text><text x="9.018" y="1.67" class="f">grpctl</text><text x="16.032" y="1.67" class="f">%</text><text x="18.036" y="1.67" class="f">grpctl</text><text x="25.05" y="1.67" class="f">--addr=localhost:8081</text><text x="47.094" y="1.67" class="f">--plaintext=true</text><text x="64.128" y="1.67" class="f">BarAPI</text></symbol><symbol id="10"><path class="g" d="M0 0h45v2.171H0z"/><text y="1.67" class="h">BarAPI -- BarAPI as defined in api.proto</text></symbol><symbol id="11"><text y="1.67" class="f">joshcarp</text><text x="9.018" y="1.67" class="f">grpctl</text><text x="16.032" y="1.67" class="f">%</text><text x="18.036" y="1.67" class="f">grpctl</text><text x="25.05" y="1.67" class="f">--addr=localhost:8081</text><text x="47.094" y="1.67" class="f">--plaintext=true</text><text x="64.128" y="1.67" class="f">BarAPI</text><text x="71.142" y="1.67" class="f">ListBars</text><text x="80.16" y="1.67" class="f">--</text></symbol><symbol id="12"><text y="1.67" class="f">--config</text><text x="13.026" y="1.67" class="f">--</text><text x="16.032" y="1.67" class="f">config</text><text x="23.046" y="1.67" class="f">file</text><text x="28.056" y="1.67" class="f">(default</text><text x="37.074" y="1.67" class="f">is</text><text x="40.08" y="1.67" class="f">$HOME/.grpctl.yaml)</text></symbol><symbol id="13"><text y="1.67" class="f">--header</text><text x="13.026" y="1.67" class="f">--json-data</text><text x="26.052" y="1.67" class="f">--message</text></symbol><symbol id="14"><text y="1.67" class="f">joshcarp</text><text x="9.018" y="1.67" class="f">grpctl</text><text x="16.032" y="1.67" class="f">%</text><text x="18.036" y="1.67" class="f">grpctl</text><text x="25.05" y="1.67" class="f">--addr=localhost:8081</text><text x="47.094" y="1.67" class="f">--plaintext=true</text><text x="64.128" y="1.67" class="f">BarAPI</text><text x="71.142" y="1.67" class="f">ListBars</text><text x="80.16" y="1.67" class="f">--config</text></symbol><symbol id="15"><path class="g" d="M0 0h59v2.171H0z"/><text y="1.67" class="h">--config -- config file (default is $HOME/.grpctl.yaml)</text></symbol><symbol id="16"><path class="g" d="M0 0h202v2.171H0z"/><text y="1.67" class="h">--config -- config file (default is $HOME/.grpctl.yaml)</text></symbol><symbol id="17"><text y="1.67" class="f">joshcarp</text><text x="9.018" y="1.67" class="f">grpctl</text><text x="16.032" y="1.67" class="f">%</text><text x="18.036" y="1.67" class="f">grpctl</text><text x="25.05" y="1.67" class="f">--addr=localhost:8081</text><text x="47.094" y="1.67" class="f">--plaintext=true</text><text x="64.128" y="1.67" class="f">BarAPI</text><text x="71.142" y="1.67" class="f">ListBars</text><text x="80.16" y="1.67" class="f">--header</text></symbol><symbol id="18"><path class="g" d="M0 0h11v2.171H0z"/><text y="1.67" class="h">--header</text><text x="13.026" y="1.67" class="f">--json-data</text><text x="26.052" y="1.67" class="f">--message</text></symbol><symbol id="19"><text y="1.67" class="f">joshcarp</text><text x="9.018" y="1.67" class="f">grpctl</text><text x="16.032" y="1.67" class="f">%</text><text x="18.036" y="1.67" class="f">grpctl</text><text x="25.05" y="1.67" class="f">--addr=localhost:8081</text><text x="47.094" y="1.67" class="f">--plaintext=true</text><text x="64.128" y="1.67" class="f">BarAPI</text><text x="71.142" y="1.67" class="f">ListBars</text><text x="80.16" y="1.67" class="f">--json-data</text></symbol><symbol id="20"><text y="1.67" class="f">--header</text><path class="g" d="M13.026 0h11v2.171h-11z"/><text x="13.026" y="1.67" class="h">--json-data</text><text x="26.052" y="1.67" class="f">--message</text></symbol><symbol id="21"><text y="1.67" class="f">joshcarp</text><text x="9.018" y="1.67" class="f">grpctl</text><text x="16.032" y="1.67" class="f">%</text><text x="18.036" y="1.67" class="f">grpctl</text><text x="25.05" y="1.67" class="f">--addr=localhost:8081</text><text x="47.094" y="1.67" class="f">--plaintext=true</text><text x="64.128" y="1.67" class="f">BarAPI</text><text x="71.142" y="1.67" class="f">ListBars</text><text x="80.16" y="1.67" class="f">--message</text></symbol><symbol id="22"><text y="1.67" class="f">--header</text><text x="13.026" y="1.67" class="f">--json-data</text><path class="g" d="M26.052 0h11v2.171h-11z"/><text x="26.052" y="1.67" class="h">--message</text></symbol><symbol id="23"><text y="1.67" class="f">joshcarp</text><text x="9.018" y="1.67" class="f">grpctl</text><text x="16.032" y="1.67" class="f">%</text><text x="18.036" y="1.67" class="f">grpctl</text><text x="25.05" y="1.67" class="f">--addr=localhost:8081</text><text x="47.094" y="1.67" class="f">--plaintext=true</text><text x="64.128" y="1.67" class="f">BarAPI</text><text x="71.142" y="1.67" class="f">ListBars</text><text x="80.16" y="1.67" class="f">--message</text><text x="90.18" y="1.67" class="f">string</text></symbol><symbol id="24"><text y="1.67" class="f">joshcarp</text><text x="9.018" y="1.67" class="f">grpctl</text><text x="16.032" y="1.67" class="f">%</text><text x="18.036" y="1.67" class="f">grpctl</text><text x="25.05" y="1.67" class="f">--addr=localhost:8081</text><text x="47.094" y="1.67" class="f">--plaintext=true</text><text x="64.128" y="1.67" class="f">BarAPI</text><text x="71.142" y="1.67" class="f">ListBars</text><text x="80.16" y="1.67" class="f">--message</text><text x="90.18" y="1.67" class="f">&quot;&quot;</text></symbol><symbol id="25"><text y="1.67" class="f">joshcarp</text><text x="9.018" y="1.67" class="f">grpctl</text><text x="16.032" y="1.67" class="f">%</text><text x="18.036" y="1.67" class="f">grpctl</text><text x="25.05" y="1.67" class="f">--addr=localhost:8081</text><text x="47.094" y="1.67" class="f">--plaintext=true</text><text x="64.128" y="1.67" class="f">BarAPI</text><text x="71.142" y="1.67" class="f">ListBars</text><text x="80.16" y="1.67" class="f">--message</text><text x="90.18" y="1.67" class="f">&quot;foobar&quot;</text></symbol><symbol id="26"><text y="1.67" class="f">{</text></symbol><symbol id="27"><text x="1.002" y="1.67" class="f">&quot;message&quot;:</text><text x="12.024" y="1.67" class="f">&quot;Incoming</text><text x="22.044" y="1.67" class="f">Message:</text><text x="31.062" y="1.67" class="f">foobar</text><text x="38.076" y="1.67" class="f">\n</text><text x="41.082" y="1.67" class="f">Metadata:</text><text x="51.102" y="1.67" class="f">map[:authority:[localhost:8081]</text><text x="83.166" y="1.67" class="f">content-type:[application/grpc]</text><text x="115.23" y="1.67" class="f">user-agent:[grpc-go/1.40.0]]&quot;</text></symbol><symbol id="28"><text y="1.67" class="f">}</text><path class="g" d="M1.002 0h1v2.171h-1z"/><text x="1.002" y="1.67" style="white-space:pre" fill="#282d35" font-weight="700">%</text></symbol><symbol id="29"><text y="1.67" class="f">joshcarp</text><text x="9.018" y="1.67" class="f">grpctl</text><text x="16.032" y="1.67" class="f">%</text><text x="18.036" y="1.67" class="f">exit</text></symbol><symbol id="a"><path fill="transparent" d="M0 0h202v28H0z"/></symbol><symbol id="b"><path fill="#6f7683" d="M0 0h1.102v2.171H0z"/></symbol></defs><path class="a" d="M0 0h202v60.788H0z"/><g style="animation-duration:30.567107s;animation-iteration-count:infinite;animation-name:l;animation-timing-function:steps(1,end)"><svg width="22422"><svg><use xlink:href="#a"/><use xlink:href="#b" x="-.004"/></svg><svg x="202"><use xlink:href="#a"/><use xlink:href="#b" x="-.004"/></svg><svg x="404"><use xlink:href="#a"/><use xlink:href="#b" x="17.996"/><use xlink:href="#1"/></svg><svg x="606"><use xlink:href="#a"/><use xlink:href="#b" x="18.996"/><text y="1.67" class="f">joshcarp</text><text x="9.018" y="1.67" class="f">grpctl</text><text x="16.032" y="1.67" class="f">%</text><text x="18.036" y="1.67" class="f">g</text></svg><svg x="808"><use xlink:href="#a"/><use xlink:href="#b" x="19.996"/><text y="1.67" class="f">joshcarp</text><text x="9.018" y="1.67" class="f">grpctl</text><text x="16.032" y="1.67" class="f">%</text><text x="18.036" y="1.67" class="f">gr</text></svg><svg x="1010"><use xlink:href="#a"/><use xlink:href="#b" x="20.996"/><text y="1.67" class="f">joshcarp</text><text x="9.018" y="1.67" class="f">grpctl</text><text x="16.032" y="1.67" class="f">%</text><text x="18.036" y="1.67" class="f">grp</text></svg><svg x="1212"><use xlink:href="#a"/><use xlink:href="#b" x="21.996"/><text y="1.67" class="f">joshcarp</text><text x="9.018" y="1.67" class="f">grpctl</text><text x="16.032" y="1.67" class="f">%</text><text x="18.036" y="1.67" class="f">grpc</text></svg><svg x="1414"><use xlink:href="#a"/><use xlink:href="#b" x="22.996"/><text y="1.67" class="f">joshcarp</text><text x="9.018" y="1.67" class="f">grpctl</text><text x="16.032" y="1.67" class="f">%</text><text x="18.036" y="1.67" class="f">grpct</text></svg><svg x="1616"><use xlink:href="#a"/><use xlink:href="#b" x="23.996"/><use xlink:href="#2"/></svg><svg x="1818"><use xlink:href="#a"/><use xlink:href="#b" x="24.996"/><use xlink:href="#2"/></svg><svg x="2020"><use xlink:href="#a"/><use xlink:href="#b" x="25.996"/><text y="1.67" class="f">joshcarp</text><text x="9.018" y="1.67" class="f">grpctl</text><text x="16.032" y="1.67" class="f">%</text><text x="18.036" y="1.67" class="f">grpctl</text><text x="25.05" y="1.67" class="f">-</text></svg><svg x="2222"><use xlink:href="#a"/><use xlink:href="#b" x="26.996"/><text y="1.67" class="f">joshcarp</text><text x="9.018" y="1.67" class="f">grpctl</text><text x="16.032" y="1.67" class="f">%</text><text x="18.036" y="1.67" class="f">grpctl</text><text x="25.05" y="1.67" class="f">--</text></svg><svg x="2424"><use xlink:href="#a"/><use xlink:href="#b" x="27.996"/><text y="1.67" class="f">joshcarp</text><text x="9.018" y="1.67" class="f">grpctl</text><text x="16.032" y="1.67" class="f">%</text><text x="18.036" y="1.67" class="f">grpctl</text><text x="25.05" y="1.67" class="f">--a</text></svg><svg x="2626"><use xlink:href="#a"/><use xlink:href="#b" x="28.996"/><text y="1.67" class="f">joshcarp</text><text x="9.018" y="1.67" class="f">grpctl</text><text x="16.032" y="1.67" class="f">%</text><text x="18.036" y="1.67" class="f">grpctl</text><text x="25.05" y="1.67" class="f">--ad</text></svg><svg x="2828"><use xlink:href="#a"/><use xlink:href="#b" x="29.996"/><text y="1.67" class="f">joshcarp</text><text x="9.018" y="1.67" class="f">grpctl</text><text x="16.032" y="1.67" class="f">%</text><text x="18.036" y="1.67" class="f">grpctl</text><text x="25.05" y="1.67" class="f">--add</text></svg><svg x="3030"><use xlink:href="#a"/><use xlink:href="#b" x="30.996"/><text y="1.67" class="f">joshcarp</text><text x="9.018" y="1.67" class="f">grpctl</text><text x="16.032" y="1.67" class="f">%</text><text x="18.036" y="1.67" class="f">grpctl</text><text x="25.05" y="1.67" class="f">--addr</text></svg><svg x="3232"><use xlink:href="#a"/><use xlink:href="#b" x="31.996"/><text y="1.67" class="f">joshcarp</text><text x="9.018" y="1.67" class="f">grpctl</text><text x="16.032" y="1.67" class="f">%</text><text x="18.036" y="1.67" class="f">grpctl</text><text x="25.05" y="1.67" class="f">--addr=</text></svg><svg x="3434"><use xlink:href="#a"/><use xlink:href="#b" x="32.996"/><text y="1.67" class="f">joshcarp</text><text x="9.018" y="1.67" class="f">grpctl</text><text x="16.032" y="1.67" class="f">%</text><text x="18.036" y="1.67" class="f">grpctl</text><text x="25.05" y="1.67" class="f">--addr=l</text></svg><svg x="3636"><use xlink:href="#a"/><use xlink:href="#b" x="33.996"/><text y="1.67" class="f">joshcarp</text><text x="9.018" y="1.67" class="f">grpctl</text><text x="16.032" y="1.67" class="f">%</text><text x="18.036" y="1.67" class="f">grpctl</text><text x="25.05" y="1.67" class="f">--addr=lo</text></svg><svg x="3838"><use xlink:href="#a"/><use xlink:href="#b" x="34.996"/><text y="1.67" class="f">joshcarp</text><text x="9.018" y="1.67" class="f">grpctl</text><text x="16.032" y="1.67" class="f">%</text><text x="18.036" y="1.67" class="f">grpctl</text><text x="25.05" y="1.67" class="f">--addr=loc</text></svg><svg x="4040"><use xlink:href="#a"/><use xlink:href="#b" x="35.996"/><text y="1.67" class="f">joshcarp</text><text x="9.018" y="1.67" class="f">grpctl</text><text x="16.032" y="1.67" class="f">%</text><text x="18.036" y="1.67" class="f">grpctl</text><text x="25.05" y="1.67" class="f">--addr=loca</text></svg><svg x="4242"><use xlink:href="#a"/><use xlink:href="#b" x="36.996"/><text y="1.67" class="f">joshcarp</text><text x="9.018" y="1.67" class="f">grpctl</text><text x="16.032" y="1.67" class="f">%</text><text x="18.036" y="1.67" class="f">grpctl</text><text x="25.05" y="1.67" class="f">--addr=local</text></svg><svg x="4444"><use xlink:href="#a"/><use xlink:href="#b" x="37.996"/><text y="1.67" class="f">joshcarp</text><text x="9.018" y="1.67" class="f">grpctl</text><text x="16.032" y="1.67" class="f">%</text><text x="18.036" y="1.67" class="f">grpctl</text><text x="25.05" y="1.67" class="f">--addr=localh</text></svg><svg x="4646"><use xlink:href="#a"/><use xlink:href="#b" x="38.996"/><text y="1.67" class="f">joshcarp</text><text x="9.018" y="1.67" class="f">grpctl</text><text x="16.032" y="1.67" class="f">%</text><text x="18.036" y="1.67" class="f">grpctl</text><text x="25.05" y="1.67" class="f">--addr=localho</text></svg><svg x="4848"><use xlink:href="#a"/><use xlink:href="#b" x="39.996"/><text y="1.67" class="f">joshcarp</text><text x="9.018" y="1.67" class="f">grpctl</text><text x="16.032" y="1.67" class="f">%</text><text x="18.036" y="1.67" class="f">grpctl</text><text x="25.05" y="1.67" class="f">--addr=localhos</text></svg><svg x="5050"><use xlink:href="#a"/><use xlink:href="#b" x="40.996"/><text y="1.67" class="f">joshcarp</text><text x="9.018" y="1.67" class="f">grpctl</text><text x="16.032" y="1.67" class="f">%</text><text x="18.036" y="1.67" class="f">grpctl</text><text x="25.05" y="1.67" class="f">--addr=localhost</text></svg><svg x="5252"><use xlink:href="#a"/><use xlink:href="#b" x="41.996"/><text y="1.67" class="f">joshcarp</text><text x="9.018" y="1.67" class="f">grpctl</text><text x="16.032" y="1.67" class="f">%</text><text x="18.036" y="1.67" class="f">grpctl</text><text x="25.05" y="1.67" class="f">--addr=localhost:</text></svg><svg x="5454"><use xlink:href="#a"/><use xlink:href="#b" x="42.996"/><text y="1.67" class="f">joshcarp</text><text x="9.018" y="1.67" class="f">grpctl</text><text x="16.032" y="1.67" class="f">%</text><text x="18.036" y="1.67" class="f">grpctl</text><text x="25.05" y="1.67" class="f">--addr=localhost:8</text></svg><svg x="5656"><use xlink:href="#a"/><use xlink:href="#b" x="43.996"/><text y="1.67" class="f">joshcarp</text><text x="9.018" y="1.67" class="f">grpctl</text><text x="16.032" y="1.67" class="f">%</text><text x="18.036" y="1.67" class="f">grpctl</text><text x="25.05" y="1.67" class="f">--addr=localhost:80</text></svg><svg x="5858"><use xlink:href="#a"/><use xlink:href="#b" x="44.996"/><text y="1.67" class="f">joshcarp</text><text x="9.018" y="1.67" class="f">grpctl</text><text x="16.032" y="1.67" class="f">%</text><text x="18.036" y="1.67" class="f">grpctl</text><text x="25.05" y="1.67" class="f">--addr=localhost:808</text></svg><svg x="6060"><use xlink:href="#a"/><use xlink:href="#b" x="45.996"/><use xlink:href="#3"/></svg><svg x="6262"><use xlink:href="#a"/><use xlink:href="#b" x="46.996"/><use xlink:href="#3"/></svg><svg x="6464"><use xlink:href="#a"/><use xlink:href="#b" x="47.996"/><text y="1.67" class="f">joshcarp</text><text x="9.018" y="1.67" class="f">grpctl</text><text x="16.032" y="1.67" class="f">%</text><text x="18.036" y="1.67" class="f">grpctl</text><text x="25.05" y="1.67" class="f">--addr=localhost:8081</text><text x="47.094" y="1.67" class="f">-</text></svg><svg x="6666"><use xlink:href="#a"/><use xlink:href="#b" x="48.996"/><text y="1.67" class="f">joshcarp</text><text x="9.018" y="1.67" class="f">grpctl</text><text x="16.032" y="1.67" class="f">%</text><text x="18.036" y="1.67" class="f">grpctl</text><text x="25.05" y="1.67" class="f">--addr=localhost:8081</text><text x="47.094" y="1.67" class="f">--</text></svg><svg x="6868"><use xlink:href="#a"/><use xlink:href="#b" x="49.996"/><text y="1.67" class="f">joshcarp</text><text x="9.018" y="1.67" class="f">grpctl</text><text x="16.032" y="1.67" class="f">%</text><text x="18.036" y="1.67" class="f">grpctl</text><text x="25.05" y="1.67" class="f">--addr=localhost:8081</text><text x="47.094" y="1.67" class="f">--p</text></svg><svg x="7070"><use xlink:href="#a"/><use xlink:href="#b" x="50.996"/><text y="1.67" class="f">joshcarp</text><text x="9.018" y="1.67" class="f">grpctl</text><text x="16.032" y="1.67" class="f">%</text><text x="18.036" y="1.67" class="f">grpctl</text><text x="25.05" y="1.67" class="f">--addr=localhost:8081</text><text x="47.094" y="1.67" class="f">--pl</text></svg><svg x="7272"><use xlink:href="#a"/><use xlink:href="#b" x="51.996"/><text y="1.67" class="f">joshcarp</text><text x="9.018" y="1.67" class="f">grpctl</text><text x="16.032" y="1.67" class="f">%</text><text x="18.036" y="1.67" class="f">grpctl</text><text x="25.05" y="1.67" class="f">--addr=localhost:8081</text><text x="47.094" y="1.67" class="f">--pla</text></svg><svg x="7474"><use xlink:href="#a"/><use xlink:href="#b" x="52.996"/><text y="1.67" class="f">joshcarp</text><text x="9.018" y="1.67" class="f">grpctl</text><text x="16.032" y="1.67" class="f">%</text><text x="18.036" y="1.67" class="f">grpctl</text><text x="25.05" y="1.67" class="f">--addr=localhost:8081</text><text x="47.094" y="1.67" class="f">--plai</text></svg><svg x="7676"><use xlink:href="#a"/><use xlink:href="#b" x="53.996"/><text y="1.67" class="f">joshcarp</text><text x="9.018" y="1.67" class="f">grpctl</text><text x="16.032" y="1.67" class="f">%</text><text x="18.036" y="1.67" class="f">grpctl</text><text x="25.05" y="1.67" class="f">--addr=localhost:8081</text><text x="47.094" y="1.67" class="f">--plain</text></svg><svg x="7878"><use xlink:href="#a"/><use xlink:href="#b" x="54.996"/><text y="1.67" class="f">joshcarp</text><text x="9.018" y="1.67" class="f">grpctl</text><text x="16.032" y="1.67" class="f">%</text><text x="18.036" y="1.67" class="f">grpctl</text><text x="25.05" y="1.67" class="f">--addr=localhost:8081</text><text x="47.094" y="1.67" class="f">--plaint</text></svg><svg x="8080"><use xlink:href="#a"/><use xlink:href="#b" x="55.996"/><text y="1.67" class="f">joshcarp</text><text x="9.018" y="1.67" class="f">grpctl</text><text x="16.032" y="1.67" class="f">%</text><text x="18.036" y="1.67" class="f">grpctl</text><text x="25.05" y="1.67" class="f">--addr=localhost:8081</text><text x="47.094" y="1.67" class="f">--plainte</text></svg><svg x="8282"><use xlink:href="#a"/><use xlink:href="#b" x="56.996"/><text y="1.67" class="f">joshcarp</text><text x="9.018" y="1.67" class="f">grpctl</text><text x="16.032" y="1.67" class="f">%</text><text x="18.036" y="1.67" class="f">grpctl</text><text x="25.05" y="1.67" class="f">--addr=localhost:8081</text><text x="47.094" y="1.67" class="f">--plaintex</text></svg><svg x="8484"><use xlink:href="#a"/><use xlink:href="#b" x="57.996"/><text y="1.67" class="f">joshcarp</text><text x="9.018" y="1.67" class="f">grpctl</text><text x="16.032" y="1.67" class="f">%</text><text x="18.036" y="1.67" class="f">grpctl</text><text x="25.05" y="1.67" class="f">--addr=localhost:8081</text><text x="47.094" y="1.67" class="f">--plaintext</text></svg><svg x="8686"><use xlink:href="#a"/><use xlink:href="#b" x="58.996"/><text y="1.67" class="f">joshcarp</text><text x="9.018" y="1.67" class="f">grpctl</text><text x="16.032" y="1.67" class="f">%</text><text x="18.036" y="1.67" class="f">grpctl</text><text x="25.05" y="1.67" class="f">--addr=localhost:8081</text><text x="47.094" y="1.67" class="f">--plaintext=</text></svg><svg x="8888"><use xlink:href="#a"/><use xlink:href="#b" x="59.996"/><text y="1.67" class="f">joshcarp</text><text x="9.018" y="1.67" class="f">grpctl</text><text x="16.032" y="1.67" class="f">%</text><text x="18.036" y="1.67" class="f">grpctl</text><text x="25.05" y="1.67" class="f">--addr=localhost:8081</text><text x="47.094" y="1.67" class="f">--plaintext=t</text></svg><svg x="9090"><use xlink:href="#a"/><use xlink:href="#b" x="60.996"/><text y="1.67" class="f">joshcarp</text><text x="9.018" y="1.67" class="f">grpctl</text><text x="16.032" y="1.67" class="f">%</text><text x="18.036" y="1.67" class="f">grpctl</text><text x="25.05" y="1.67" class="f">--addr=localhost:8081</text><text x="47.094" y="1.67" class="f">--plaintext=tr</text></svg><svg x="9292"><use xlink:href="#a"/><use xlink:href="#b" x="61.996"/><text y="1.67" class="f">joshcarp</text><text x="9.018" y="1.67" class="f">grpctl</text><text x="16.032" y="1.67" class="f">%</text><text x="18.036" y="1.67" class="f">grpctl</text><text x="25.05" y="1.67" class="f">--addr=localhost:8081</text><text x="47.094" y="1.67" class="f">--plaintext=tru</text></svg><svg x="9494"><use xlink:href="#a"/><use xlink:href="#b" x="62.996"/><use xlink:href="#4"/></svg><svg x="9696"><use xlink:href="#a"/><use xlink:href="#b" x="63.996"/><use xlink:href="#4"/></svg><svg x="9898"><use xlink:href="#a"/><use xlink:href="#b" x="-.004" y="2.146"/><use xlink:href="#4"/></svg><svg x="10100"><use xlink:href="#a"/><use xlink:href="#b" x="63.996"/><use xlink:href="#4"/><use xlink:href="#5" y="2.171"/><use xlink:href="#6" y="4.342"/><use xlink:href="#7" y="6.513"/><use xlink:href="#8" y="8.684"/></svg><svg x="10302"><use xlink:href="#a"/><use xlink:href="#b" x="-.004" y="2.146"/><use xlink:href="#9"/><use xlink:href="#5" y="2.171"/><use xlink:href="#6" y="4.342"/><use xlink:href="#7" y="6.513"/><use xlink:href="#8" y="8.684"/></svg><svg x="10504"><use xlink:href="#a"/><use xlink:href="#b" x="69.996"/><use xlink:href="#9"/><use xlink:href="#10" y="2.171"/><use xlink:href="#6" y="4.342"/><use xlink:href="#7" y="6.513"/><use xlink:href="#8" y="8.684"/></svg><svg x="10706"><use xlink:href="#a"/><use xlink:href="#b" x="-.004" y="2.146"/><use xlink:href="#9"/><use xlink:href="#10" y="2.171"/><use xlink:href="#6" y="4.342"/><use xlink:href="#7" y="6.513"/><use xlink:href="#8" y="8.684"/></svg><svg x="10908"><use xlink:href="#a"/><use xlink:href="#b" x="69.996"/><use xlink:href="#9"/><path class="g" d="M0 2.171h202v2.171H0z"/><text y="3.841" class="h">BarAPI -- BarAPI as defined in api.proto</text><use xlink:href="#6" y="4.342"/><use xlink:href="#7" y="6.513"/><use xlink:href="#8" y="8.684"/></svg><svg x="11110"><use xlink:href="#a"/><use xlink:href="#b" x="70.996"/><use xlink:href="#9"/></svg><svg x="11312"><use xlink:href="#a"/><use xlink:href="#b" x="70.996"/><use xlink:href="#9"/></svg><svg x="11514"><use xlink:href="#a"/><use xlink:href="#b" x="79.996"/><text y="1.67" class="f">joshcarp</text><text x="9.018" y="1.67" class="f">grpctl</text><text x="16.032" y="1.67" class="f">%</text><text x="18.036" y="1.67" class="f">grpctl</text><text x="25.05" y="1.67" class="f">--addr=localhost:8081</text><text x="47.094" y="1.67" class="f">--plaintext=true</text><text x="64.128" y="1.67" class="f">BarAPI</text><text x="71.142" y="1.67" class="f">ListBars</text></svg><svg x="11716"><use xlink:href="#a"/><use xlink:href="#b" x="80.996"/><text y="1.67" class="f">joshcarp</text><text x="9.018" y="1.67" class="f">grpctl</text><text x="16.032" y="1.67" class="f">%</text><text x="18.036" y="1.67" class="f">grpctl</text><text x="25.05" y="1.67" class="f">--addr=localhost:8081</text><text x="47.094" y="1.67" class="f">--plaintext=true</text><text x="64.128" y="1.67" class="f">BarAPI</text><text x="71.142" y="1.67" class="f">ListBars</text><text x="80.16" y="1.67" class="f">-</text></svg><svg x="11918"><use xlink:href="#a"/><use xlink:href="#b" x="81.996"/><use xlink:href="#11"/></svg><svg x="12120"><use xlink:href="#a"/><use xlink:href="#b" x="81.996"/><use xlink:href="#11"/></svg><svg x="12322"><use xlink:href="#a"/><use xlink:href="#b" x="-.004" y="2.146"/><use xlink:href="#11"/></svg><svg x="12524"><use xlink:href="#a"/><use xlink:href="#b" x="81.996"/><use xlink:href="#11"/><use xlink:href="#12" y="2.171"/><use xlink:href="#13" y="4.342"/></svg><svg x="12726"><use xlink:href="#a"/><use xlink:href="#b" x="-.004" y="2.146"/><use xlink:href="#14"/><use xlink:href="#12" y="2.171"/><use xlink:href="#13" y="4.342"/></svg><svg x="12928"><use xlink:href="#a"/><use xlink:href="#b" x="87.996"/><use xlink:href="#14"/><use xlink:href="#15" y="2.171"/><use xlink:href="#13" y="4.342"/></svg><svg x="13130"><use xlink:href="#a"/><use xlink:href="#b" x="-.004" y="2.146"/><use xlink:href="#14"/><use xlink:href="#15" y="2.171"/><use xlink:href="#13" y="4.342"/></svg><svg x="13332"><use xlink:href="#a"/><use xlink:href="#b" x="17.996"/><use xlink:href="#14"/><use xlink:href="#16" y="2.171"/><use xlink:href="#13" y="4.342"/></svg><svg x="13534"><use xlink:href="#a"/><use xlink:href="#b" x="-.004" y="2.146"/><use xlink:href="#17"/><use xlink:href="#16" y="2.171"/><use xlink:href="#13" y="4.342"/></svg><svg x="13736"><use xlink:href="#a"/><use xlink:href="#b" x="87.996"/><use xlink:href="#17"/><use xlink:href="#12" y="2.171"/><use xlink:href="#18" y="4.342"/></svg><svg x="13938"><use xlink:href="#a"/><use xlink:href="#b" x="-.004" y="2.146"/><use xlink:href="#19"/><use xlink:href="#12" y="2.171"/><use xlink:href="#18" y="4.342"/></svg><svg x="14140"><use xlink:href="#a"/><use xlink:href="#b" x="17.996"/><use xlink:href="#19"/><use xlink:href="#12" y="2.171"/><use xlink:href="#20" y="4.342"/></svg><svg x="14342"><use xlink:href="#a"/><use xlink:href="#b" x="90.996"/><use xlink:href="#19"/><use xlink:href="#12" y="2.171"/><use xlink:href="#20" y="4.342"/></svg><svg x="14544"><use xlink:href="#a"/><use xlink:href="#b" x="-.004" y="2.146"/><use xlink:href="#21"/><use xlink:href="#12" y="2.171"/><use xlink:href="#20" y="4.342"/></svg><svg x="14746"><use xlink:href="#a"/><use xlink:href="#b" x="17.996"/><use xlink:href="#21"/><use xlink:href="#12" y="2.171"/><use xlink:href="#22" y="4.342"/></svg><svg x="14948"><use xlink:href="#a"/><use xlink:href="#b" x="88.996"/><use xlink:href="#21"/><use xlink:href="#12" y="2.171"/><use xlink:href="#22" y="4.342"/></svg><svg x="15150"><use xlink:href="#a"/><use xlink:href="#b" x="89.996"/><use xlink:href="#21"/></svg><svg x="15352"><use xlink:href="#a"/><use xlink:href="#b" x="90.996"/><text y="1.67" class="f">joshcarp</text><text x="9.018" y="1.67" class="f">grpctl</text><text x="16.032" y="1.67" class="f">%</text><text x="18.036" y="1.67" class="f">grpctl</text><text x="25.05" y="1.67" class="f">--addr=localhost:8081</text><text x="47.094" y="1.67" class="f">--plaintext=true</text><text x="64.128" y="1.67" class="f">BarAPI</text><text x="71.142" y="1.67" class="f">ListBars</text><text x="80.16" y="1.67" class="f">--message</text><text x="90.18" y="1.67" class="f">=</text></svg><svg x="15554"><use xlink:href="#a"/><use xlink:href="#b" x="89.996"/><use xlink:href="#21"/></svg><svg x="15756"><use xlink:href="#a"/><use xlink:href="#b" x="88.996"/><use xlink:href="#21"/></svg><svg x="15958"><use xlink:href="#a"/><use xlink:href="#b" x="89.996"/><use xlink:href="#21"/></svg><svg x="16160"><use xlink:href="#a"/><use xlink:href="#b" x="96.996"/><use xlink:href="#23"/></svg><svg x="16362"><use xlink:href="#a"/><use xlink:href="#b" x="95.996"/><use xlink:href="#23"/></svg><svg x="16564"><use xlink:href="#a"/><use xlink:href="#b" x="89.996"/><use xlink:href="#21"/></svg><svg x="16766"><use xlink:href="#a"/><use xlink:href="#b" x="90.996"/><text y="1.67" class="f">joshcarp</text><text x="9.018" y="1.67" class="f">grpctl</text><text x="16.032" y="1.67" class="f">%</text><text x="18.036" y="1.67" class="f">grpctl</text><text x="25.05" y="1.67" class="f">--addr=localhost:8081</text><text x="47.094" y="1.67" class="f">--plaintext=true</text><text x="64.128" y="1.67" class="f">BarAPI</text><text x="71.142" y="1.67" class="f">ListBars</text><text x="80.16" y="1.67" class="f">--message</text><text x="90.18" y="1.67" class="f">&quot;</text></svg><svg x="16968"><use xlink:href="#a"/><use xlink:href="#b" x="91.996"/><use xlink:href="#24"/></svg><svg x="17170"><use xlink:href="#a"/><use xlink:href="#b" x="90.996"/><use xlink:href="#24"/></svg><svg x="17372"><use xlink:href="#a"/><use xlink:href="#b" x="91.996"/><text y="1.67" class="f">joshcarp</text><text x="9.018" y="1.67" class="f">grpctl</text><text x="16.032" y="1.67" class="f">%</text><text x="18.036" y="1.67" class="f">grpctl</text><text x="25.05" y="1.67" class="f">--addr=localhost:8081</text><text x="47.094" y="1.67" class="f">--plaintext=true</text><text x="64.128" y="1.67" class="f">BarAPI</text><text x="71.142" y="1.67" class="f">ListBars</text><text x="80.16" y="1.67" class="f">--message</text><text x="90.18" y="1.67" class="f">&quot;f&quot;</text></svg><svg x="17574"><use xlink:href="#a"/><use xlink:href="#b" x="92.996"/><text y="1.67" class="f">joshcarp</text><text x="9.018" y="1.67" class="f">grpctl</text><text x="16.032" y="1.67" class="f">%</text><text x="18.036" y="1.67" class="f">grpctl</text><text x="25.05" y="1.67" class="f">--addr=localhost:8081</text><text x="47.094" y="1.67" class="f">--plaintext=true</text><text x="64.128" y="1.67" class="f">BarAPI</text><text x="71.142" y="1.67" class="f">ListBars</text><text x="80.16" y="1.67" class="f">--message</text><text x="90.18" y="1.67" class="f">&quot;fo&quot;</text></svg><svg x="17776"><use xlink:href="#a"/><use xlink:href="#b" x="93.996"/><text y="1.67" class="f">joshcarp</text><text x="9.018" y="1.67" class="f">grpctl</text><text x="16.032" y="1.67" class="f">%</text><text x="18.036" y="1.67" class="f">grpctl</text><text x="25.05" y="1.67" class="f">--addr=localhost:8081</text><text x="47.094" y="1.67" class="f">--plaintext=true</text><text x="64.128" y="1.67" class="f">BarAPI</text><text x="71.142" y="1.67" class="f">ListBars</text><text x="80.16" y="1.67" class="f">--message</text><text x="90.18" y="1.67" class="f">&quot;foo&quot;</text></svg><svg x="17978"><use xlink:href="#a"/><use xlink:href="#b" x="94.996"/><text y="1.67" class="f">joshcarp</text><text x="9.018" y="1.67" class="f">grpctl</text><text x="16.032" y="1.67" class="f">%</text><text x="18.036" y="1.67" class="f">grpctl</text><text x="25.05" y="1.67" class="f">--addr=localhost:8081</text><text x="47.094" y="1.67" class="f">--plaintext=true</text><text x="64.128" y="1.67" class="f">BarAPI</text><text x="71.142" y="1.67" class="f">ListBars</text><text x="80.16" y="1.67" class="f">--message</text><text x="90.18" y="1.67" class="f">&quot;foob&quot;</text></svg><svg x="18180"><use xlink:href="#a"/><use xlink:href="#b" x="95.996"/><text y="1.67" class="f">joshcarp</text><text x="9.018" y="1.67" class="f">grpctl</text><text x="16.032" y="1.67" class="f">%</text><text x="18.036" y="1.67" class="f">grpctl</text><text x="25.05" y="1.67" class="f">--addr=localhost:8081</text><text x="47.094" y="1.67" class="f">--plaintext=true</text><text x="64.128" y="1.67" class="f">BarAPI</text><text x="71.142" y="1.67" class="f">ListBars</text><text x="80.16" y="1.67" class="f">--message</text><text x="90.18" y="1.67" class="f">&quot;fooba&quot;</text></svg><svg x="18382"><use xlink:href="#a"/><use xlink:href="#b" x="96.996"/><use xlink:href="#25"/></svg><svg x="18584"><use xlink:href="#a"/><use xlink:href="#b" x="97.996"/><text y="1.67" class="f">joshcarp</text><text x="9.018" y="1.67" class="f">grpctl</text><text x="16.032" y="1.67" class="f">%</text><text x="18.036" y="1.67" class="f">grpctl</text><text x="25.05" y="1.67" class="f">--addr=localhost:8081</text><text x="47.094" y="1.67" class="f">--plaintext=true</text><text x="64.128" y="1.67" class="f">BarAPI</text><text x="71.142" y="1.67" class="f">ListBars</text><text x="80.16" y="1.67" class="f">--message</text><text x="90.18" y="1.67" class="f">&quot;foobar</text><text x="98.196" y="1.67" class="f">&quot;</text></svg><svg x="18786"><use xlink:href="#a"/><use xlink:href="#b" x="96.996"/><use xlink:href="#25"/></svg><svg x="18988"><use xlink:href="#a"/><use xlink:href="#b" x="96.996"/><use xlink:href="#25"/></svg><svg x="19190"><use xlink:href="#a"/><use xlink:href="#b" x="-.004" y="2.146"/><use xlink:href="#25"/></svg><svg x="19392"><use xlink:href="#a"/><use xlink:href="#b" x="-.004" y="2.146"/><use xlink:href="#25"/></svg><svg x="19594"><use xlink:href="#a"/><use xlink:href="#b" x=".996" y="6.488"/><use xlink:href="#25"/><use xlink:href="#26" y="2.171"/><use xlink:href="#27" y="4.342"/><text y="8.183" class="f">}</text></svg><svg x="19796"><use xlink:href="#a"/><use xlink:href="#b" x="-.004" y="8.659"/><use xlink:href="#25"/><use xlink:href="#26" y="2.171"/><use xlink:href="#27" y="4.342"/><use xlink:href="#28" y="6.513"/></svg><svg x="19998"><use xlink:href="#a"/><use xlink:href="#b" x="-.004" y="8.659"/><use xlink:href="#25"/><use xlink:href="#26" y="2.171"/><use xlink:href="#27" y="4.342"/><use xlink:href="#28" y="6.513"/></svg><svg x="20200"><use xlink:href="#a"/><use xlink:href="#b" x="-.004" y="8.659"/><use xlink:href="#25"/><use xlink:href="#26" y="2.171"/><use xlink:href="#27" y="4.342"/><use xlink:href="#28" y="6.513"/></svg><svg x="20402"><use xlink:href="#a"/><use xlink:href="#b" x="17.996" y="8.659"/><use xlink:href="#25"/><use xlink:href="#26" y="2.171"/><use xlink:href="#27" y="4.342"/><use xlink:href="#28" y="6.513"/><use xlink:href="#1" y="8.684"/></svg><svg x="20604"><use xlink:href="#a"/><use xlink:href="#b" x="17.996" y="8.659"/><use xlink:href="#25"/><use xlink:href="#26" y="2.171"/><use xlink:href="#27" y="4.342"/><use xlink:href="#28" y="6.513"/><use xlink:href="#1" y="8.684"/></svg><svg x="20806"><use xlink:href="#a"/><use xlink:href="#b" x="17.996" y="8.659"/><use xlink:href="#25"/><use xlink:href="#26" y="2.171"/><use xlink:href="#27" y="4.342"/><use xlink:href="#28" y="6.513"/><use xlink:href="#1" y="8.684"/></svg><svg x="21008"><use xlink:href="#a"/><use xlink:href="#b" x="18.996" y="8.659"/><use xlink:href="#25"/><use xlink:href="#26" y="2.171"/><use xlink:href="#27" y="4.342"/><use xlink:href="#28" y="6.513"/><text y="10.354" class="f">joshcarp</text><text x="9.018" y="10.354" class="f">grpctl</text><text x="16.032" y="10.354" class="f">%</text><text x="18.036" y="10.354" class="f">e</text></svg><svg x="21210"><use xlink:href="#a"/><use xlink:href="#b" x="19.996" y="8.659"/><use xlink:href="#25"/><use xlink:href="#26" y="2.171"/><use xlink:href="#27" y="4.342"/><use xlink:href="#28" y="6.513"/><text y="10.354" class="f">joshcarp</text><text x="9.018" y="10.354" class="f">grpctl</text><text x="16.032" y="10.354" class="f">%</text><text x="18.036" y="10.354" class="f">ex</text></svg><svg x="21412"><use xlink:href="#a"/><use xlink:href="#b" x="20.996" y="8.659"/><use xlink:href="#25"/><use xlink:href="#26" y="2.171"/><use xlink:href="#27" y="4.342"/><use xlink:href="#28" y="6.513"/><text y="10.354" class="f">joshcarp</text><text x="9.018" y="10.354" class="f">grpctl</text><text x="16.032" y="10.354" class="f">%</text><text x="18.036" y="10.354" class="f">exi</text></svg><svg x="21614"><use xlink:href="#a"/><use xlink:href="#b" x="21.996" y="8.659"/><use xlink:href="#25"/><use xlink:href="#26" y="2.171"/><use xlink:href="#27" y="4.342"/><use xlink:href="#28" y="6.513"/><use xlink:href="#29" y="8.684"/></svg><svg x="21816"><use xlink:href="#a"/><use xlink:href="#b" x="21.996" y="8.659"/><use xlink:href="#25"/><use xlink:href="#26" y="2.171"/><use xlink:href="#27" y="4.342"/><use xlink:href="#28" y="6.513"/><use xlink:href="#29" y="8.684"/></svg><svg x="22018"><use xlink:href="#a"/><use xlink:href="#b" x="-.004" y="10.83"/><use xlink:href="#25"/><use xlink:href="#26" y="2.171"/><use xlink:href="#27" y="4.342"/><use xlink:href="#28" y="6.513"/><use xlink:href="#29" y="8.684"/></svg><svg x="22220"><use xlink:href="#a"/><use xlink:href="#b" x="-.004" y="10.83"/><use xlink:href="#25"/><use xlink:href="#26" y="2.171"/><use xlink:href="#27" y="4.342"/><use xlink:href="#28" y="6.513"/><use xlink:href="#29" y="8.684"/></svg></svg></g></g></svg></svg>